<svg xmlns="http://www.w3.org/2000/svg" viewBox="0 0 256 256"><style>.a{fill:#fff;}</style><g fill="none"><rect width="256" height="256" fill="#12283A"/><path d="m166 107.5v-12.5c0-4 2.1-6 6.2-6h27.4c7.8 0 14.2 2.5 19.1 7.5 4.9 5 7.3 11.5 7.3 19.3 0 7.9-2.4 14.4-7.3 19.5s-11.2 7.6-19.1 7.6h-13.8v18.1c0 4-2.1 6-6.2 6h-7.4c-4.2 0-6.2-2-6.2-6v-12.9c3.6-6 5.4-12.8 5.4-20.5 0-7.5-1.8-14.2-5.4-20zm29.9-2.1h-10.1v21.2h9.7c3.3 0 5.9-1 7.6-2.9 1.8-2 2.7-4.5 2.7-7.7 0-3.2-0.9-5.7-2.6-7.6-1.7-1.9-4.2-2.8-7.4-2.8z" class="a"/><path d="m90 122.7c0.9-8.9 4.6-16.4 10.9-22.7 7.4-7.4 16.9-11 28.5-11 11.6 0 21.1 3.7 28.5 11 7.4 7.4 11.1 16.5 11.1 27.5 0 11.3-3.7 20.7-11.1 28.2-7.4 7.5-16.9 11.3-28.5 11.3-11.3 0-20.6-3.6-27.9-10.7l-11.5-33.6zm18.9 4.8c0 6.5 1.9 11.9 5.8 16.1 3.8 4.3 8.7 6.4 14.7 6.4 5.9 0 10.8-2.1 14.7-6.4 3.8-4.3 5.8-9.7 5.8-16.1 0-6.2-1.9-11.3-5.8-15.5-3.8-4.1-8.7-6.2-14.7-6.2-5.9 0-10.8 2.1-14.7 6.2-3.8 4.1-5.8 9.3-5.8 15.5z" class="a"/><path d="m30.5 160.1l22.8-66.2c1.1-3.3 3.4-4.9 6.8-4.9h9.9c3.4 0 5.7 1.6 6.8 4.9l22.8 66.2c0.7 2 0.6 3.7-0.3 5s-2.5 1.9-4.7 1.9h-7.3c-3.4 0-5.7-1.7-6.8-5l-3.3-11.3h-24.5l-3.3 11.3c-1 3.3-3.2 5-6.7 5h-7.3c-2.2 0-3.8-0.6-4.7-1.9s-1-2.9-0.3-5zm26.7-24.8h15.5l-4.4-15.2-3.2-13.4h-0.2c-1.2 5.7-2.2 10.1-3.2 13.4l-4.5 15.2z" class="a"/></g></svg>
